#!OML:ASF E:\pregnant2\Project 1\Capture day 1\Session 1\pregnant2.ASF
:FULLY-SPECIFIED
:DEGREES
840
root 3.06894 17.1924 24.8482 -152.509 37.3402 -183.192
lowerback -21.9558 -1.14404 2.81086
upperback -15.2596 0.812531 2.22628
thorax -4.56403 1.50941 0.856596
lowerneck -13.0946 -6.28789 -7.07726
upperneck 39.8098 -5.37842 2.54358
head 16.9985 -1.79505 1.78204
rclavicle 4.55217e-014 5.24792e-014
rhumerus -116.885 25.0182 -139.105
rradius 90.6801
rwrist 27.0059
rhand -54.4351 -22.9896
rfingers 7.12502
rthumb -26.8398 -51.1047
lclavicle 4.55217e-014 5.24792e-014
lhumerus -115.766 -36.3278 146.326
lradius 93.5734
lwrist -12.9989
lhand -46.421 23.9789
lfingers 7.12502
lthumb -19.1506 53.056
rfemur -40.4193 15.442 15.5444
rtibia 29.2668
rfoot -19.5716 -23.4518
rtoes 9.49121
lfemur -35.0819 -9.66007 -19.9614
ltibia 25.0136
lfoot -12.7815 21.4972
ltoes -15.3118
841
root 3.07055 17.1931 24.8443 -152.519 37.3391 -183.264
lowerback -21.9849 -1.12356 2.9542
upperback -15.2374 0.810157 2.25053
thorax -4.52694 1.4969 0.802885
lowerneck -13.2052 -6.21778 -6.96435
upperneck 39.8156 -5.27525 2.46933
head 17.0128 -1.74779 1.74533
rclavicle -1.61016e-014 -2.22639e-014
rhumerus -116.945 25.0874 -139.218
rradius 90.7097
rwrist 27.0656
rhand -53.746 -22.1468
rfingers 7.12502
rthumb -26.1802 -50.3615
lclavicle -1.61016e-014 -2.22639e-014
lhumerus -115.675 -36.3011 146.226
lradius 93.5416
lwrist -13.0334
lhand -46.4246 23.9287
lfingers 7.12502
lthumb -19.154 53.0055
rfemur -40.4797 15.4918 15.4381
rtibia 29.3416
rfoot -19.6762 -23.5036
rtoes 9.61425
lfemur -35.0561 -9.66321 -20.0268
ltibia 24.9084
lfoot -12.7292 21.4497
ltoes -15.328
842
root 3.07158 17.1929 24.8411 -152.525 37.3548 -183.325
lowerback -21.9742 -1.0747 3.09705
upperback -15.2388 0.852502 2.26136
thorax -4.53633 1.50798 0.741193
lowerneck -13.259 -6.14563 -6.90383
upperneck 39.8203 -5.17009 2.44909
head 17.0173 -1.69776 1.74443
rclavicle 6.36111e-015 -3.18055e-015
rhumerus -116.982 25.071 -139.268
rradius 90.7624
rwrist 27.1062
rhand -53.0341 -21.0586
rfingers 7.12502
rthumb -25.4984 -49.3726
lclavicle 6.36111e-015 -3.18055e-015
lhumerus -115.649 -36.2665 146.175
lradius 93.5063
lwrist -13.1028
lhand -46.4224 23.9317
lfingers 7.12502
lthumb -19.1519 53.0087
rfemur -40.5551 15.5283 15.3468
rtibia 29.4398
rfoot -19.7783 -23.5376
rtoes 9.69836
lfemur -35.0266 -9.66944 -20.0879
ltibia 24.8027
lfoot -12.6755 21.4404
ltoes -15.3397
843
root 3.07379 17.1925 24.8271 -152.648 37.4158 -183.326
lowerback -22.0051 -0.911927 3.49609
upperback -15.1345 0.964861 2.14686
thorax -4.40332 1.51617 0.416901
lowerneck -13.0984 -5.99594 -6.82421
upperneck 39.6713 -5.02177 2.55947
head 16.8828 -1.61299 1.80633
rclavicle -1.78906e-014 7.95139e-015
rhumerus -116.804 25.059 -139.328
rradius 90.695
rwrist 27.361
rhand -52.3147 -19.6123
rfingers 7.12502
rthumb -24.8091 -48.023
lclavicle -1.78906e-014 7.95139e-015
lhumerus -115.976 -36.4925 146.29
lradius 93.6265
lwrist -13.1514
lhand -47.4506 28.472
lfingers 7.12502
lthumb -20.1404 57.448
rfemur -40.4048 15.5806 15.3213
rtibia 29.4851
rfoot -19.8604 -23.5188
rtoes 9.72285
lfemur -34.8045 -9.80161 -20.1158
ltibia 24.7311
lfoot -12.6764 21.6112
ltoes -15.2996
844
root 3.07433 17.1927 24.8344 -152.532 37.3796 -183.445
lowerback -21.9633 -1.01209 3.36126
upperback -15.2294 0.891474 2.32345
thorax -4.53657 1.51004 0.666166
lowerneck -13.4029 -5.99525 -6.63805
upperneck 39.8029 -4.93306 2.2269
head 17.0047 -1.59405 1.63735
rclavicle 5.82439e-014 -4.29375e-014
rhumerus -117.092 25.1061 -139.396
rradius 90.8494
rwrist 27.1993
rhand -51.6593 -19.6934
rfingers 7.12502
rthumb -24.1809 -48.1891
lclavicle 5.82439e-014 -4.29375e-014
lhumerus -115.499 -36.1898 146.03
lradius 93.4094
lwrist -13.2015
lhand -46.4519 23.9073
lfingers 7.12502
lthumb -19.1803 52.9815
rfemur -40.6658 15.6271 15.1539
rtibia 29.543
rfoot -19.8422 -23.6894
rtoes 9.59705
lfemur -34.9993 -9.62324 -20.2284
ltibia 24.6661
lfoot -12.6416 21.3503
ltoes -15.351
845
root 3.07482 17.1931 24.8324 -152.507 37.3751 -183.522
lowerback -21.9525 -0.979714 3.47552
upperback -15.2469 0.922634 2.34219
thorax -4.5644 1.5201 0.626681
lowerneck -13.4526 -5.94513 -6.52571
upperneck 39.7761 -4.86334 2.14877
head 16.9888 -1.5612 1.59325
rclavicle 3.73715e-014 -7.95139e-015
rhumerus -117.139 25.0832 -139.459
rradius 90.9044
rwrist 27.2293
rhand -50.9176 -19.0051
rfingers 7.12502
rthumb -23.4695 -47.5936
lclavicle 3.73715e-014 -7.95139e-015
lhumerus -115.5 -36.1721 146.027
lradius 93.368
lwrist -13.2385
lhand -46.5132 24.0269
lfingers 7.12502
lthumb -19.2393 53.0952
rfemur -40.7712 15.6593 15.0373
rtibia 29.6035
rfoot -19.8932 -23.7544
rtoes 9.57717
lfemur -35.0385 -9.59446 -20.301
ltibia 24.5938
lfoot -12.5998 21.2748
ltoes -15.3887
846
root 3.07519 17.1928 24.8298 -152.519 37.3885 -183.583
lowerback -21.9255 -0.979825 3.59702
upperback -15.2439 0.903668 2.41884
thorax -4.5782 1.50455 0.637155
lowerneck -13.5184 -5.82702 -6.42927
upperneck 39.7685 -4.66282 2.02906
head 16.9792 -1.48279 1.55756
rclavicle -1.09332e-014 4.29375e-014
rhumerus -117.317 25.1492 -139.547
rradius 91.0045
rwrist 27.3266
rhand -50.2439 -18.4258
rfingers 7.12502
rthumb -22.8232 -47.0955
lclavicle -1.09332e-014 4.29375e-014
lhumerus -115.37 -36.045 145.95
lradius 93.3183
lwrist -13.2811
lhand -46.4991 23.9247
lfingers 7.12502
lthumb -19.2257 52.9944
rfemur -40.8438 15.721 14.9325
rtibia 29.6829
rfoot -19.977 -23.8327
rtoes 9.61455
lfemur -35.0214 -9.5738 -20.3728
ltibia 24.5258
lfoot -12.5853 21.2206
ltoes -15.376
847
root 3.07486 17.1929 24.8277 -152.519 37.3939 -183.675
lowerback -21.9198 -0.94391 3.72141
upperback -15.2435 0.931955 2.43528
thorax -4.58306 1.51034 0.589666
lowerneck -13.5847 -5.76546 -6.29953
upperneck 39.754 -4.56535 1.91662
head 16.9713 -1.44054 1.50011
rclavicle -9.93923e-015 -8.74653e-014
rhumerus -117.348 25.1443 -139.609
rradius 91.0325
rwrist 27.3756
rhand -49.5334 -17.8931
rfingers 7.12502
rthumb -22.1412 -46.6452
lclavicle -9.93923e-015 -8.74653e-014
lhumerus -115.357 -36.0611 145.955
lradius 93.2578
lwrist -13.2972
lhand -46.57 23.8873
lfingers 7.12502
lthumb -19.2939 52.9502
rfemur -40.9371 15.7822 14.7855
rtibia 29.7512
rfoot -20.0691 -23.9023
rtoes 9.76745
lfemur -35.0401 -9.57194 -20.4579
ltibia 24.4443
lfoot -12.5367 21.1632
ltoes -15.3628
848
root 3.07471 17.1926 24.825 -152.512 37.3987 -183.749
lowerback -21.9166 -0.922494 3.84286
upperback -15.2348 0.939805 2.48084
thorax -4.57783 1.50708 0.571987
lowerneck -13.6955 -5.68476 -6.17136
upperneck 39.7504 -4.42774 1.78036
head 16.9781 -1.38629 1.4389
rclavicle -8.07066e-014 -4.45278e-014
rhumerus -117.405 25.1929 -139.666
rradius 91.0777
rwrist 27.4245
rhand -48.8259 -17.4574
rfingers 7.12502
rthumb -21.4618 -46.2886
lclavicle -8.07066e-014 -4.45278e-014
lhumerus -115.263 -36.0022 145.901
lradius 93.1956
lwrist -13.3673
lhand -46.5175 23.9131
lfingers 7.12502
lthumb -19.2434 52.981
rfemur -41.0263 15.8349 14.6576
rtibia 29.8199
rfoot -20.2087 -23.94
rtoes 10.0125
lfemur -35.0545 -9.55763 -20.5317
ltibia 24.3586
lfoot -12.4899 21.1213
ltoes -15.371
